/* XPM */
static char *arrow_down[] = {
/* columns rows colors chars-per-pixel */
"9 9 21 1 ",
"  c #7F7F7F",
". c #808080",
"X c #838383",
"o c #858585",
"O c #878787",
"+ c #8B8B8B",
"@ c #8F8F8F",
"# c #939393",
"$ c #9B9B9B",
"% c #A4A4A4",
"& c #ADADAD",
"* c #AEAEAE",
"= c #B2B2B2",
"- c #B7B7B7",
"; c #B9B9B9",
": c #C5C5C5",
"> c #D1D1D1",
", c #DEDEDE",
"< c #EBEBEB",
"1 c #F9F9F9",
"2 c None",
/* pixels */
"222$11222",
"222#<<222",
"222+,,222",
"222X>>222",
"222X::222",
"2o&-;;=&2",
"22@&&&&22",
"222+%%222",
"2222 2222"
};
