/* XPM */
static char *arrow_top[] = {
/* columns rows colors chars-per-pixel */
"9 9 21 1 ",
"  c #616161",
". c #676767",
"X c #6E6E6E",
"o c #757575",
"O c #818181",
"+ c #969696",
"@ c #9A9A9A",
"# c #A5A5A5",
"$ c #AFAFAF",
"% c #B6B6B6",
"& c #BABABA",
"* c #C2C2C2",
"= c #C6C6C6",
"- c #CACACA",
"; c #CDCDCD",
": c #D0D0D0",
"> c #D2D2D2",
", c #DEDEDE",
"< c #DFDFDF",
"1 c #ECECEC",
"2 c None",
/* pixels */
"2222;2222",
"222*11222",
"22%<<<<22",
"2+=:::-=2",
"222O-=222",
"222o&&222",
"222X$$222",
"222.##222",
"222 @@222"
};
